<?xml version="1.0" standalone="no"?>
<!DOCTYPE svg PUBLIC "-//W3C//DTD SVG 20010904//EN"
 "http://www.w3.org/TR/2001/REC-SVG-20010904/DTD/svg10.dtd">
<svg version="1.0" xmlns="http://www.w3.org/2000/svg"
 width="512.000000pt" height="512.000000pt" viewBox="0 0 512.000000 512.000000"
 preserveAspectRatio="xMidYMid meet">

<g transform="translate(0.000000,512.000000) scale(0.100000,-0.100000)"
fill="#000000" stroke="none">
<path d="M2435 5114 c-16 -2 -70 -9 -120 -15 -173 -22 -409 -103 -570 -195
-528 -304 -853 -876 -833 -1464 11 -306 155 -740 467 -1410 282 -604 1040
-1957 1127 -2010 61 -38 114 -18 166 62 110 169 418 701 628 1088 483 888 768
1544 875 2015 93 407 -9 873 -273 1245 -82 115 -260 295 -368 371 -217 155
-451 253 -699 294 -89 15 -343 27 -400 19z m245 -409 c336 -26 668 -252 835
-568 220 -419 144 -926 -190 -1262 -423 -426 -1106 -426 -1530 0 -288 289
-385 700 -260 1095 112 350 405 622 773 715 65 16 228 34 272 29 14 -2 59 -6
100 -9z"/>
<path d="M2410 4294 c-85 -18 -210 -81 -282 -141 -179 -150 -269 -379 -238
-603 36 -259 195 -459 442 -553 78 -29 91 -31 223 -31 128 -1 147 1 221 27
204 70 362 232 431 442 22 68 26 97 26 200 0 103 -4 132 -26 200 -61 187 -184
326 -362 411 -127 61 -291 79 -435 48z"/>
</g>
</svg>
