<?xml version="1.0" standalone="no"?>
<!DOCTYPE svg PUBLIC "-//W3C//DTD SVG 20010904//EN"
 "http://www.w3.org/TR/2001/REC-SVG-20010904/DTD/svg10.dtd">
<svg version="1.0" xmlns="http://www.w3.org/2000/svg"
 width="128.000000pt" height="128.000000pt" viewBox="0 0 128.000000 128.000000"
 preserveAspectRatio="xMidYMid meet">

<g transform="translate(0.000000,128.000000) scale(0.100000,-0.100000)"
fill="#000000" stroke="none">
<path d="M473 1056 c-158 -30 -268 -82 -355 -168 -166 -162 -150 -388 37 -539
58 -46 187 -104 280 -125 109 -25 301 -25 410 0 93 21 222 79 280 125 103 83
163 208 152 317 -18 171 -172 315 -402 375 -103 27 -301 34 -402 15z m98 -73
c-33 -42 -55 -95 -65 -163 -13 -81 -13 -81 -54 -74 -171 28 -259 108 -189 171
54 50 191 95 310 102 l28 1 -30 -37z m283 11 c257 -65 242 -204 -26 -248 -41
-7 -41 -7 -54 74 -10 68 -32 121 -66 164 l-31 39 59 -7 c32 -4 86 -14 118 -22z
m-188 -89 c27 -18 66 -109 62 -143 -3 -27 -3 -27 -88 -27 -85 0 -85 0 -88 27
-6 50 54 158 88 158 3 0 15 -7 26 -15z m-493 -98 c29 -68 127 -125 260 -150
l57 -11 0 -57 c0 -124 51 -292 97 -318 36 -20 2 -23 -79 -7 -105 21 -228 79
-295 140 -114 103 -150 255 -89 379 15 31 29 57 32 57 2 0 10 -15 17 -33z
m1008 -95 c14 -68 5 -121 -32 -199 -64 -132 -225 -229 -434 -259 l-49 -7 31
32 c52 52 93 190 93 317 l0 50 58 11 c134 26 230 82 259 152 l15 35 24 -39
c13 -22 29 -64 35 -93z m-444 -142 c-20 -237 -174 -237 -194 0 l-6 70 103 0
103 0 -6 -70z"/>
</g>
</svg>
